<svg data-v-0dd9719b="" version="1.0" xmlns="http://www.w3.org/2000/svg" xmlns:xlink="http://www.w3.org/1999/xlink" width="100%" height="100%" viewBox="0 0 340.000000 250.000000" preserveAspectRatio="xMidYMid meet" color-interpolation-filters="sRGB" style="margin: auto;"> <rect data-v-0dd9719b="" x="0" y="0" width="100%" height="100%" fill="#fff" fill-opacity="1" class="background"></rect> <rect data-v-0dd9719b="" x="0" y="0" width="100%" height="100%" fill="url(#watermark)" fill-opacity="1" class="watermarklayer"></rect> <g data-v-0dd9719b="" fill="#333" class="icon-text-wrapper icon-svg-group iconsvg" transform="translate(80.74499517679214,74.01654052734375)"><g class="iconsvg-imagesvg" transform="translate(59.2550048828125,0)"><g><rect fill="#333" fill-opacity="0" stroke-width="2" x="0" y="0" width="60" height="49.726916351038874" class="image-rect"></rect> <svg x="0" y="0" width="60" height="49.726916351038874" filtersec="colorsb2700844319" class="image-svg-svg primary" style="overflow: visible;"><svg xmlns="http://www.w3.org/2000/svg" viewBox="0 0.005984633229672909 60.73432540893555 50.33552169799805"><defs><linearGradient id="a136e8108-8801-43bc-90ce-968259523927" x1="14.52" y1="25.17" x2="60.73" y2="25.17" gradientUnits="userSpaceOnUse"><stop offset="0" stop-color="#22bbfe"></stop><stop offset=".48" stop-color="#812eff"></stop><stop offset=".99" stop-color="#f95595"></stop></linearGradient></defs><path d="M28.09 1.12a25.23 25.23 0 0 1 28.52 37.94c.92 3.29 1.78 6.59 2.66 9.89l-9.92-2.66a24.74 24.74 0 0 1-13.84 4.05 25.24 25.24 0 0 1-21-11.13h18.22v5.51c5.59-7.4 11.12-14.83 16.7-22.24-3.72-.05-7.44 0-11.16 0V5.67C37 7.5 35.52 9.32 34.19 11.19H14.57A25.33 25.33 0 0 1 28.09 1.12z" fill="url(#a136e8108-8801-43bc-90ce-968259523927)"></path><path d="M0 22.42c1.35-1.91 2.8-3.74 4.17-5.63h25.76c-1.54 1.82-2.66 4.12-4.51 5.6-8.42.09-16.95.04-25.42.03z" fill="#812eff"></path><path d="M9.79 28h22.68l.25.24c.07 1.77 0 3.55 0 5.32H5.64C7 31.71 8.43 29.87 9.79 28z" fill="#22bbfe"></path></svg></svg> <!----></g></g> <g transform="translate(0,56.7269172668457)"><g data-gra="path-name" fill-rule="" class="tp-name iconsvg-namesvg"><g transform="scale(1)"><g><path d="M17.64 0Q18.36 0 18.55-0.65L18.55-0.65 29.15-39.04 39.62 0 44.6 0Q45.31 0 45.5-0.71L45.5-0.71 57.39-45.24 52.16-45.24 43.24-7.69 33.29-45.24 25.66-45.24 16.03-7.69 7.43-45.24 0.84-45.24 12.47 0 17.64 0ZM60.43-22.1Q60.43-15.96 62.79-10.92 65.15-5.88 69.54-2.94 73.94 0 79.82 0L79.82 0Q85.83 0 90.23-3.01 94.62-6.01 96.92-11.18 99.21-16.35 99.21-22.62L99.21-22.62Q99.21-28.83 96.95-33.96 94.69-39.1 90.32-42.17 85.96-45.24 79.82-45.24L79.82-45.24Q73.55-45.24 69.19-42.17 64.83-39.1 62.63-33.83 60.43-28.57 60.43-22.1L60.43-22.1ZM66.44-21.85Q66.44-29.67 69.54-34.9 72.65-40.14 79.82-40.14L79.82-40.14Q84.47-40.14 87.54-37.71 90.61-35.29 91.78-31.31 92.94-27.34 92.94-22.62L92.94-22.62Q92.94-17.77 91.78-13.77 90.61-9.76 87.54-7.3 84.47-4.85 79.82-4.85L79.82-4.85Q75.3-4.85 72.13-7.17 68.96-9.5 67.7-13.38 66.44-17.26 66.44-21.85L66.44-21.85ZM132.5 0Q132.88 0 133.17-0.29 133.46-0.58 133.46-0.97L133.46-0.97 133.46-5.11 110.97-5.11 110.97-45.24 104.38-45.24 104.38 0 132.5 0ZM157.25 0L161.97 0Q162.36 0 162.65-0.29 162.94-0.58 162.94-0.97L162.94-0.97 162.94-19.39 179.35-45.24 172.89-45.24 159.96-24.95 147.3-45.24 140.57-45.24 157.25-19.65 157.25 0Z" transform="translate(-0.8400000333786011, 45.2400016784668)"></path></g> <!----> <!----> <!----> <!----> <!----> <!----> <!----></g></g> <!----></g></g><defs v-gra="od"></defs></svg>